<svg xmlns="http://www.w3.org/2000/svg" width="15" height="16.78" viewBox="0 0 15 16.78"><defs><style>.a{fill:#151515;}.b{fill:#007bff;stroke:#fff;stroke-width:0.5px;}.c{stroke:none;}.d{fill:none;}</style></defs><g transform="translate(-1367 -28.47)"><path class="a" d="M12.724,20.155a1.679,1.679,0,0,0,1.67-1.678H11.054A1.679,1.679,0,0,0,12.724,20.155Zm5.429-5.034V10.506a5.438,5.438,0,0,0-4.176-5.286V4.633a1.253,1.253,0,1,0-2.506,0v.587A5.438,5.438,0,0,0,7.3,10.506v4.614L5.625,16.8v.839h14.2V16.8Z" transform="translate(1361.375 25.095)"/><g class="b" transform="translate(1375 30)"><circle class="c" cx="3.5" cy="3.5" r="3.5"/><circle class="d" cx="3.5" cy="3.5" r="3.25"/></g></g></svg>